<?xml version="1.0" standalone="no"?>
<!DOCTYPE svg PUBLIC "-//W3C//DTD SVG 20010904//EN"
 "http://www.w3.org/TR/2001/REC-SVG-20010904/DTD/svg10.dtd">
<svg version="1.0" xmlns="http://www.w3.org/2000/svg"
 width="920.000000pt" height="689.000000pt" viewBox="0 0 920.000000 689.000000"
 preserveAspectRatio="xMidYMid meet">

<g transform="translate(0.000000,689.000000) scale(0.100000,-0.100000)"
fill="#000000" stroke="none">
<path d="M3335 6745 c-22 -8 -55 -30 -72 -49 -46 -49 -46 -113 -2 -194 18 -31
39 -70 48 -87 20 -37 21 -188 2 -350 -16 -134 -10 -408 12 -515 8 -41 35 -140
61 -219 92 -286 96 -308 96 -553 0 -166 -3 -219 -12 -222 -7 -2 -32 -9 -56
-15 -59 -16 -108 -68 -127 -136 -27 -90 -35 -186 -45 -515 -12 -428 -28 -716
-46 -830 -8 -52 -21 -153 -29 -225 -21 -189 -62 -435 -90 -547 -14 -53 -25
-108 -25 -123 0 -54 45 -106 128 -149 l32 -17 0 -88 c0 -102 -52 -327 -115
-497 -85 -229 -240 -488 -397 -666 -102 -115 -113 -124 -202 -168 -51 -26
-120 -64 -152 -83 -41 -26 -83 -41 -139 -52 -44 -8 -100 -20 -125 -25 -78 -17
-236 -30 -497 -39 l-253 -8 -35 -27 c-49 -37 -67 -69 -63 -108 2 -28 10 -37
48 -56 45 -24 46 -24 325 -18 154 2 386 10 515 17 287 14 879 7 1145 -15 105
-8 294 -20 420 -26 127 -5 264 -15 305 -21 91 -14 369 -5 520 16 296 41 370
45 718 42 l343 -3 14 26 c7 14 15 41 17 60 4 31 9 35 59 52 106 36 179 86 179
122 0 9 -27 126 -60 259 -98 398 -128 692 -116 1134 4 133 9 253 11 265 2 13
6 77 10 143 4 66 13 156 20 200 7 44 16 112 20 150 13 138 76 623 100 775 13
85 27 184 30 220 13 137 8 130 71 130 71 0 88 10 108 61 10 23 26 53 37 67 10
14 19 35 19 49 0 14 17 41 40 67 22 24 40 50 40 59 0 17 -60 73 -96 89 -20 9
-23 18 -22 51 2 49 -27 77 -78 77 -33 0 -34 1 -34 41 0 43 72 379 113 529 24
90 104 377 115 420 4 14 15 26 25 28 39 8 237 -148 417 -328 158 -157 222
-237 315 -391 63 -105 81 -122 120 -116 17 3 38 8 47 12 17 7 17 5 3 -29 -8
-19 -15 -44 -15 -54 0 -11 40 -58 91 -108 274 -267 480 -612 677 -1134 38
-102 75 -209 81 -239 13 -63 25 -81 54 -81 20 0 20 4 14 243 -10 364 -31 484
-139 775 -105 283 -247 541 -438 796 -89 119 -433 468 -535 543 -168 122 -417
275 -541 330 l-126 57 5 46 c3 25 10 79 17 120 l12 75 -31 27 c-25 22 -41 28
-79 28 -61 0 -161 -24 -214 -51 l-41 -21 6 -79 5 -80 -69 7 c-80 8 -94 0 -104
-55 -9 -53 -9 -193 0 -220 7 -22 11 -23 86 -19 l79 3 0 -81 c0 -44 5 -106 10
-137 10 -52 7 -71 -39 -259 -27 -112 -59 -268 -70 -348 -17 -121 -24 -148 -42
-162 -12 -10 -28 -18 -36 -18 -20 0 -92 -38 -135 -71 -26 -21 -56 -67 -108
-169 -75 -146 -121 -201 -211 -253 -21 -12 -44 -33 -53 -47 -17 -30 -162 -171
-220 -215 l-39 -29 -33 39 c-36 43 -73 132 -97 235 -19 79 -57 268 -67 330
-20 132 -80 250 -125 250 -52 0 -51 -7 -49 258 2 297 5 306 117 420 104 106
179 162 217 162 75 0 184 -84 301 -231 38 -50 77 -93 85 -96 23 -9 65 26 84
70 33 74 44 169 30 256 -17 110 -102 373 -162 503 -99 216 -182 343 -302 463
-102 101 -182 154 -304 201 -54 21 -130 58 -170 83 -120 75 -161 98 -291 164
l-125 62 -95 0 c-74 1 -109 6 -154 23 -44 17 -79 22 -146 22 -53 0 -106 6
-131 15 -53 19 -142 19 -195 0z m2618 -1212 l37 -16 0 -78 0 -78 -42 -6 c-24
-3 -72 -5 -108 -3 l-65 3 -3 82 c-2 48 2 92 8 104 11 19 17 20 73 14 34 -3 79
-13 100 -22z m375 -104 c81 -32 82 -33 232 -123 204 -123 325 -221 561 -456
288 -287 349 -372 526 -725 142 -283 213 -440 237 -525 27 -97 55 -310 61
-475 l6 -160 -19 35 c-24 43 -55 122 -125 316 -61 169 -75 197 -159 339 -140
234 -311 467 -450 613 -67 70 -69 78 -27 166 22 47 20 76 -4 76 -8 0 -36 -9
-62 -21 -63 -28 -80 -19 -140 73 -72 109 -129 181 -240 303 -206 227 -336 341
-467 410 -65 35 -68 38 -68 73 0 20 3 54 6 75 8 47 28 48 132 6z m-493 -1214
c29 -18 54 -25 91 -25 27 0 58 -6 68 -13 16 -12 15 -14 -9 -37 -28 -26 -23
-27 -179 30 -48 17 -64 19 -92 10 -40 -13 -74 -53 -74 -86 0 -44 -30 -99 -70
-126 -22 -15 -40 -32 -40 -38 0 -15 37 -12 70 5 36 19 36 16 8 -47 -22 -46
-25 -48 -56 -44 -49 7 -74 -6 -119 -66 -60 -78 -160 -184 -167 -177 -3 3 -1
30 4 60 11 59 41 106 131 209 31 36 84 115 117 175 34 61 71 120 84 132 71 65
165 80 233 38z m30 -110 c44 -14 98 -25 120 -25 22 0 59 -9 83 -20 35 -16 43
-24 40 -42 -3 -22 -6 -23 -93 -21 -58 2 -129 12 -200 30 -97 25 -110 31 -113
51 -8 57 40 65 163 27z m17 -125 c59 -10 123 -26 143 -34 32 -14 35 -18 25
-36 -14 -26 -48 -34 -116 -25 -67 8 -186 40 -225 61 -25 13 -27 17 -17 34 16
25 51 26 190 0z m-46 -114 c38 -12 90 -26 117 -30 52 -8 54 -11 31 -44 -18
-27 -60 -29 -152 -7 -63 15 -155 56 -167 75 -23 37 71 40 171 6z m-186 -99 c0
-67 -80 -810 -99 -927 -6 -30 -13 -93 -16 -140 -4 -47 -17 -182 -30 -300 -37
-325 -64 -609 -75 -765 -16 -231 -22 -635 -12 -890 4 -132 5 -243 2 -248 -9
-10 -88 59 -105 93 -8 15 -23 68 -34 116 -13 61 -41 135 -89 235 -119 248
-133 304 -147 586 -7 125 -15 166 -79 383 -20 69 -44 179 -53 245 -17 122 -24
367 -11 380 4 4 60 11 125 16 123 9 154 15 214 44 32 15 38 16 72 2 34 -15 38
-14 69 7 l33 22 0 329 c-1 345 -1 346 -50 505 -9 30 -19 73 -22 95 -4 37 0 45
46 98 28 32 71 76 96 97 43 37 51 40 106 40 55 0 59 -2 59 -23z m-1835 -1849
c-40 -265 -120 -538 -157 -538 -14 0 -1 88 27 180 12 41 26 95 30 120 4 25 11
50 15 55 12 16 54 204 48 211 -14 13 -29 -11 -86 -129 -70 -147 -113 -213
-189 -289 -74 -75 -98 -79 -49 -8 13 20 49 82 81 140 31 58 75 135 97 172 44
74 46 108 6 87 -13 -7 -60 -52 -106 -100 -45 -48 -110 -105 -145 -126 -71 -44
-117 -66 -117 -55 0 14 305 310 325 315 11 3 67 5 123 6 l104 1 -7 -42z"/>
</g>
</svg>
